<svg width="46" height="42" viewBox="0 0 46 42" fill="none" xmlns="http://www.w3.org/2000/svg">
<g clip-path="url(#clip0_119_6167)">
<path d="M36.6268 3.12109H15.5244V11.1111H41.1337V7.23451C41.1337 4.96616 39.1119 3.12109 36.6268 3.12109Z" fill="#CED9F9"/>
<path d="M24.6814 12.3403H0V4.92636C0 2.20972 2.42122 0 5.39764 0H13.2892C14.0735 0 14.8291 0.150925 15.5156 0.434509C16.4744 0.828964 17.2981 1.47913 17.8757 2.3286L24.6814 12.3403Z" fill="#1640C1"/>
<path d="M46 13.9984V37.8798C46 40.151 43.975 41.9983 41.4864 41.9983H4.5136C2.02499 41.9983 0 40.151 0 37.8798V9.87891H41.4864C43.975 9.87891 46 11.7269 46 13.9984Z" fill="#2354E6"/>
<path d="M46 13.9984V37.8798C46 40.151 43.975 41.9983 41.4864 41.9983H23V9.87891H41.4864C43.975 9.87891 46 11.7269 46 13.9984Z" fill="#1849D6"/>
<path d="M35.1002 25.9386C35.1002 32.031 29.672 36.9875 23 36.9875C16.3281 36.9875 10.8999 32.031 10.8999 25.9386C10.8999 19.8471 16.3281 14.8906 23 14.8906C29.672 14.8906 35.1002 19.8471 35.1002 25.9386Z" fill="#E7ECFC"/>
<path d="M35.1001 25.9386C35.1001 32.031 29.672 36.9875 23 36.9875V14.8906C29.672 14.8906 35.1001 19.8471 35.1001 25.9386Z" fill="#CED9F9"/>
<path d="M26.9003 26.0758C26.6479 26.2709 26.3388 26.3661 26.0324 26.3661C25.6488 26.3661 25.2677 26.2177 25.0009 25.9287L24.3478 25.2218V29.8499C24.3478 30.5292 23.7442 31.0803 23.0001 31.0803C22.2561 31.0803 21.6525 30.5292 21.6525 29.8499V25.2218L20.9994 25.9287C20.5186 26.4481 19.6689 26.5145 19.1 26.0758C18.5315 25.6378 18.4585 24.8617 18.9382 24.3422L21.6058 21.4548C21.9536 21.0793 22.4611 20.8633 23.0001 20.8633C23.5392 20.8633 24.0467 21.0793 24.3945 21.4548L27.0621 24.3422C27.5418 24.8617 27.4688 25.6378 26.9003 26.0758Z" fill="#6C8DEF"/>
<path d="M26.9001 26.0758C26.6478 26.2709 26.3386 26.3661 26.0322 26.3661C25.6486 26.3661 25.2675 26.2177 25.0008 25.9287L24.3477 25.2218V29.8499C24.3477 30.5292 23.744 31.0803 23 31.0803V20.8633C23.5391 20.8633 24.0465 21.0793 24.3943 21.4548L27.0619 24.3422C27.5417 24.8617 27.4687 25.6378 26.9001 26.0758Z" fill="#3B67E9"/>
</g>
<defs>
<clipPath id="clip0_119_6167">
<rect width="46" height="42" fill="white"/>
</clipPath>
</defs>
</svg>
